<?xml version="1.0" encoding="UTF-8" standalone="no"?>
<svg
   version="1.1"
   id="Capa_1"
   x="0px"
   y="0px"
   viewBox="0 0 256 256"
   xml:space="preserve"
   width="256"
   height="256"
   sodipodi:docname="logo.svg"
   inkscape:version="1.4 (e7c3feb100, 2024-10-09)"
   xmlns:inkscape="http://www.inkscape.org/namespaces/inkscape"
   xmlns:sodipodi="http://sodipodi.sourceforge.net/DTD/sodipodi-0.dtd"
   xmlns="http://www.w3.org/2000/svg"
   xmlns:svg="http://www.w3.org/2000/svg"><defs
   id="defs46" /><sodipodi:namedview
   id="namedview46"
   pagecolor="#ffffff"
   bordercolor="#000000"
   borderopacity="0.25"
   inkscape:showpageshadow="2"
   inkscape:pageopacity="0.0"
   inkscape:pagecheckerboard="0"
   inkscape:deskcolor="#d1d1d1"
   inkscape:zoom="2.25"
   inkscape:cx="256"
   inkscape:cy="256"
   inkscape:window-width="3440"
   inkscape:window-height="1371"
   inkscape:window-x="0"
   inkscape:window-y="0"
   inkscape:window-maximized="1"
   inkscape:current-layer="Capa_1" />
<g
   id="g46"
   transform="matrix(0.50002489,0,0,0.50002489,0.00452075,0.05591978)">
	<g
   id="g23">
		<path
   style="fill:#f2942f"
   d="m 145.845,370.577 c -14.146,-8.532 -29.108,-14.959 -44.196,-19.111 v 0 l -73.905,-0.602 v 0 c -24.103,8.401 -27.672,41.814 -5.317,55.298 l 0.975,0.588 c 7.213,4.35 15.86,5.386 24.013,3.27 16.715,-4.34 41.932,-0.702 66.226,13.951 22.324,13.465 36.777,31.956 42.047,47.909 v -94.921 c -3.194,-2.218 -6.475,-4.351 -9.843,-6.382 z"
   id="path1" />
		<path
   style="fill:#ffb15c"
   d="M 501.548,76.433 C 497.25,62.168 488.42,48.252 476.132,35.963 444.858,4.689 403.041,-4.201 371.767,27.074 c -31.274,31.275 -31.274,81.98 0,113.255 3.146,3.146 6.495,5.959 9.995,8.472 z"
   id="path2" />
		<path
   style="fill:#ffa83f"
   d="m 485.021,140.328 c 18.986,-18.986 23.167,-41.857 16.527,-63.896 -30.525,-26.857 -69.268,-32.978 -98.685,-3.561 -20.585,20.585 -27.616,49.588 -21.102,75.929 31.291,22.471 75.132,19.657 103.26,-8.472 z"
   id="path3" />
		<path
   style="fill:#ffa83f"
   d="M 86.906,35.963 C 74.618,48.252 65.788,62.168 61.49,76.433 L 181.277,148.8 c 3.499,-2.513 6.849,-5.326 9.995,-8.472 31.274,-31.274 31.274,-81.98 0,-113.255 C 159.998,-4.202 118.181,4.689 86.906,35.963 Z"
   id="path4" />
		<path
   style="fill:#f2942f"
   d="M 78.017,140.328 C 59.031,121.342 54.85,98.472 61.49,76.433 c 30.525,-26.857 69.268,-32.978 98.685,-3.561 20.585,20.585 27.616,49.588 21.102,75.929 -31.291,22.47 -75.131,19.656 -103.26,-8.473 z"
   id="path5" />
		<path
   style="fill:#ffb15c"
   d="m 368.012,502.718 v 0 c 22.418,-4.84 41.626,-19.783 51.326,-40.696 L 395.601,341.943 c -26.784,-28.808 -67.931,-47.26 -114.083,-47.26 -70.011,0 -128.513,42.452 -142.801,99.129 l 74.557,110.593 h 68.054 l 43.041,-27.022 z"
   id="path6" />
		<path
   style="fill:#ffa83f"
   d="m 217.39,450.814 c -2.745,-9.648 -4.201,-19.734 -4.201,-30.113 0,-57.979 45.413,-106.806 107.239,-121.495 -12.389,-2.943 -25.434,-4.524 -38.908,-4.524 -70.011,0 -128.513,42.452 -142.801,99.129 l 74.557,110.593 h 68.054 l 0.516,-0.324 c -30.174,-2.77 -56.044,-23.696 -64.456,-53.266 z"
   id="path7" />
		<path
   style="fill:#6a647f"
   d="m 395.602,341.943 c -15.625,3.733 -29.092,15.071 -34.822,31.353 -8.973,25.495 4.42,53.437 29.915,62.41 0.53,0.187 1.061,0.363 1.593,0.53 5.35,1.678 9.789,5.603 12.042,10.738 2.865,6.527 8.089,11.996 15.008,15.049 1.393,-3.002 2.601,-6.12 3.583,-9.357 3.096,-10.207 4.745,-20.919 4.745,-31.964 0,-29.804 -12.006,-57.185 -32.064,-78.759 z"
   id="path8" />
		<ellipse
   style="fill:#6a647f"
   cx="278.86499"
   cy="384.53799"
   rx="33.921001"
   ry="34.411999"
   id="ellipse8" />
		<path
   style="fill:#6a647f"
   d="m 368.012,502.718 c 1.593,-4.738 2.469,-9.813 2.469,-15.099 0,-25.836 -20.645,-46.779 -46.112,-46.779 -25.467,0 -46.112,20.944 -46.112,46.779 0,5.918 1.094,11.574 3.071,16.786 h 70.87 c 5.39,0 10.686,-0.58 15.814,-1.687 z"
   id="path9" />
		<path
   style="fill:#ffca8a"
   d="m 430.295,313.435 26.597,-149.303 0.003,0.001 C 448.45,139.77 434.221,118.059 415.694,100.195 h -268.35 c -21.656,20.881 -37.436,47.02 -44.971,76.506 l 21.469,125.266 c 32.243,46.065 90.793,73.693 157.677,73.693 61.13,-0.001 115.291,-23.086 148.776,-62.225 z"
   id="path10" />
		<path
   style="fill:#ffbe73"
   d="m 192.305,216.398 c 0,-45.771 18.976,-86.356 49.939,-116.204 h -94.899 c -21.656,20.881 -37.436,47.02 -44.971,76.506 l 21.469,125.266 c 32.243,46.065 90.793,73.693 157.677,73.693 16.407,0 32.308,-1.672 47.447,-4.861 -78.684,-16.574 -136.662,-74.381 -136.662,-154.4 z"
   id="path11" />
		<path
   style="fill:#ffbe73"
   d="M 377.186,71.994 244.333,51.412 c -37.779,6.892 -71.341,24.12 -96.815,48.613 2.222,15.367 12.341,29.59 29.662,35.282 v 0 c 29.06,9.55 49.523,35.641 51.872,66.139 l 8.743,113.485 h 87.446 l 8.743,-113.485 c 2.35,-30.498 22.813,-56.589 51.873,-66.139 v 0 c 17.322,-5.692 27.44,-19.916 29.662,-35.282 C 404.222,89.162 391.327,79.733 377.186,71.994 Z"
   id="path12" />
		<path
   style="fill:#ffb15c"
   d="m 244.333,51.412 c -37.779,6.892 -71.341,24.12 -96.815,48.613 2.222,15.367 12.341,29.59 29.662,35.282 v 0 c 10.865,3.57 20.527,9.454 28.491,17.016 18.369,-41.805 54.346,-74.541 99.467,-91.491 z"
   id="path13" />
		<path
   style="fill:#fff4e5"
   d="m 372.008,322.871 v 0 c 9.223,-28.787 -2.875,-60.11 -29.053,-75.224 l -29.153,-16.831 c -19.873,-11.474 -44.359,-11.474 -64.232,0 l -29.485,17.023 c -26.027,15.027 -38.155,46.092 -29.194,74.778 v 0 c 11.203,35.865 44.417,60.287 81.992,60.287 h 16.854 c 37.556,10e-4 70.812,-24.265 82.271,-60.033 z"
   id="path14" />
		<path
   style="fill:#ffe8cc"
   d="m 247.228,322.618 v 0 c -8.961,-28.687 3.167,-59.752 29.194,-74.778 l 29.486,-17.023 c 1.297,-0.749 2.614,-1.446 3.947,-2.097 -19.103,-9.326 -41.708,-8.629 -60.285,2.097 l -29.485,17.023 c -26.027,15.027 -38.155,46.092 -29.194,74.778 v 0 c 11.203,35.865 44.417,60.287 81.992,60.287 h 16.854 c 6.766,0 13.388,-0.799 19.772,-2.299 -29.078,-6.853 -53.089,-28.563 -62.281,-57.988 z"
   id="path15" />
		<path
   style="fill:#6a647f"
   d="m 257.809,259.986 c -5.57,2.944 -7.93,9.222 -5.455,14.657 4.757,10.444 16.011,17.785 29.144,17.785 13.19,0 24.486,-7.406 29.207,-17.922 2.439,-5.433 0.086,-11.685 -5.47,-14.622 l -0.31,-0.164 c -14.422,-7.623 -32.19,-7.623 -46.611,0 z"
   id="path16" />
		<path
   style="fill:#6a647f"
   d="m 213.275,504.405 c 1.094,-5.717 1.107,-11.43 0.155,-16.906 -1.678,-9.656 1.546,-19.574 8.454,-26.526 4.384,-4.412 7.617,-10.105 9.049,-16.718 3.571,-16.488 -5.814,-33.327 -21.716,-38.961 -7.03,-2.491 -14.26,-2.534 -20.82,-0.614 -8.664,2.535 -17.925,0.968 -25.429,-4.051 -7.144,-4.778 -15.661,-7.163 -24.25,-6.817 -2.184,8.665 -3.346,17.66 -3.346,26.889 0,10.379 1.456,20.464 4.201,30.113 9.042,31.783 38.248,53.591 71.292,53.591 z"
   id="path17" />
		<path
   style="fill:#4f4c5e"
   d="m 221.37,461.522 c -1.581,-3.423 -2.924,-6.994 -3.98,-10.708 -2.745,-9.648 -4.201,-19.734 -4.201,-30.113 0,-4.482 0.276,-8.909 0.806,-13.27 -1.518,-0.825 -3.109,-1.546 -4.778,-2.137 -7.03,-2.491 -14.26,-2.534 -20.82,-0.614 -8.664,2.535 -17.925,0.968 -25.429,-4.051 -7.144,-4.778 -15.661,-7.163 -24.25,-6.817 -2.184,8.665 -3.346,17.66 -3.346,26.889 0,10.379 1.456,20.464 4.201,30.113 9.042,31.783 38.248,53.591 71.292,53.591 h 2.41 c 1.094,-5.717 1.107,-11.43 0.155,-16.906 -1.635,-9.408 1.394,-19.057 7.94,-25.977 z"
   id="path18" />
		<path
   style="fill:#4f4c5e"
   d="m 54.123,346.16 c -8.603,0.521 -16.833,1.914 -24.572,4.115 -0.619,0.176 -1.214,0.381 -1.807,0.588 -0.131,1.273 -0.186,2.564 -0.14,3.872 0.628,17.722 17.722,31.5 38.18,30.775 20.458,-0.725 36.534,-15.679 35.906,-33.401 -0.008,-0.216 -0.029,-0.429 -0.042,-0.643 -15.971,-4.395 -32.084,-6.24 -47.525,-5.306 z"
   id="path19" />
		<path
   style="fill:#6a647f"
   d="m 465.627,216.398 c 0,-18.379 -3.07,-35.918 -8.735,-52.267 -6.315,2.083 -12.165,5.838 -16.812,11.255 -6.543,7.627 -9.517,17.107 -9.082,26.41 0.442,9.437 -3.928,18.411 -11.565,23.972 -3.32,2.418 -6.399,5.285 -9.148,8.594 -16.863,20.303 -15.134,50.572 3.979,68.773 4.81,4.58 10.265,7.985 16.03,10.299 22.213,-25.962 35.333,-58.985 35.333,-97.036 z"
   id="path20" />
		<path
   style="fill:#4f4c5e"
   d="m 158.779,234.103 c -5.338,-7.636 -12.655,-12.928 -20.717,-15.739 -10.647,-3.713 -18.923,-12.029 -22.907,-22.578 -2.75,-7.283 -7.15,-13.811 -12.783,-19.097 -3.237,12.669 -4.96,25.953 -4.96,39.709 0,32.652 9.657,61.603 26.43,85.568 2.371,-0.925 4.839,-1.636 7.39,-2.07 7.659,-1.302 15.078,-4.742 21.335,-10.424 15.6,-14.168 18.284,-38.097 6.212,-55.369 z"
   id="path21" />
		<path
   style="fill:#6a647f"
   d="m 244.299,51.407 c 4.034,26.375 25.308,47.823 53.09,50.882 0.69,0.076 1.377,0.14 2.064,0.191 6.902,0.52 13.337,3.996 17.484,9.539 6.389,8.539 16.505,14.253 28.262,14.532 17.531,0.417 33.056,-12.124 36.347,-29.348 1.74,-9.105 -0.052,-17.929 -4.323,-25.204 -27.889,-15.266 -60.652,-23.934 -95.705,-23.934 -12.75,0 -25.198,1.148 -37.219,3.342 z"
   id="path22" />
		<path
   style="fill:#4f4c5e"
   d="m 328.935,53.567 c -15.131,-3.582 -31.018,-5.501 -47.416,-5.501 -12.751,0 -25.199,1.148 -37.22,3.342 1.941,12.69 7.881,24.232 16.608,33.141 19.733,-14.354 42.815,-25.007 68.028,-30.982 z"
   id="path23" />
	</g>
	<g
   id="g45">
		<path
   style="fill:none;stroke:#000000;stroke-width:15;stroke-linecap:round;stroke-linejoin:round;stroke-miterlimit:10"
   d="m 312.656,381.504 c 0.086,1 0.13,2.012 0.13,3.035 0,19.005 -15.187,34.412 -33.921,34.412 -18.734,0 -33.921,-15.407 -33.921,-34.412 0,-1.684 0.119,-3.34 0.35,-4.959"
   id="path24" />
		<path
   style="fill:none;stroke:#000000;stroke-width:15;stroke-linecap:round;stroke-linejoin:round;stroke-miterlimit:10"
   d="m 456.892,164.131 c -6.315,2.083 -12.165,5.838 -16.812,11.255 -6.543,7.627 -9.517,17.107 -9.082,26.41 0.442,9.437 -3.928,18.411 -11.565,23.972 -3.32,2.418 -6.399,5.285 -9.148,8.594 -16.863,20.303 -15.134,50.572 3.979,68.773 4.81,4.58 10.265,7.985 16.03,10.299"
   id="path25" />
		<path
   style="fill:none;stroke:#000000;stroke-width:15;stroke-linecap:round;stroke-linejoin:round;stroke-miterlimit:10"
   d="m 123.842,301.966 c 2.371,-0.925 4.839,-1.636 7.39,-2.07 7.659,-1.302 15.078,-4.742 21.335,-10.424 15.6,-14.168 18.285,-38.097 6.212,-55.369 -5.338,-7.636 -12.655,-12.928 -20.717,-15.739 -10.647,-3.713 -18.923,-12.029 -22.907,-22.578 -2.75,-7.283 -7.15,-13.811 -12.783,-19.097"
   id="path26" />
		<path
   style="fill:none;stroke:#000000;stroke-width:15;stroke-linecap:round;stroke-linejoin:round;stroke-miterlimit:10"
   d="m 145.845,370.577 c -29.12,-17.563 -61.694,-26.234 -91.722,-24.416 -8.603,0.521 -16.833,1.914 -24.572,4.115 -25.73,7.317 -30.03,42.07 -7.124,55.886 l 0.975,0.588 c 7.213,4.35 15.86,5.386 24.013,3.27 16.715,-4.34 41.932,-0.702 66.226,13.951 8.372,5.049 15.636,10.805 21.725,16.869"
   id="path27" />
		<path
   style="fill:none;stroke:#000000;stroke-width:15;stroke-linecap:round;stroke-linejoin:round;stroke-miterlimit:10"
   d="M 456.338,158.771 C 466.8,154.884 476.613,148.736 485.022,140.328 516.296,109.054 507.407,67.237 476.133,35.963 444.859,4.689 403.042,-4.201 371.768,27.073 362.34,36.501 355.754,47.695 352.011,59.59"
   id="path28" />
		<path
   style="fill:none;stroke:#000000;stroke-width:15;stroke-linecap:round;stroke-linejoin:round;stroke-miterlimit:10"
   d="M 501.548,76.433 C 471.023,49.576 432.28,43.455 402.863,72.872 c -2.573,2.573 -4.935,5.278 -7.084,8.092"
   id="path29" />
		<path
   style="fill:none;stroke:#000000;stroke-width:15;stroke-linecap:round;stroke-linejoin:round;stroke-miterlimit:10"
   d="M 107.207,158.958 C 96.555,155.082 86.561,148.873 78.017,140.329 46.743,109.055 55.632,67.238 86.907,35.964 118.182,4.69 159.998,-4.2 191.272,27.074 c 9.269,9.269 15.791,20.245 19.566,31.916"
   id="path30" />
		<path
   style="fill:none;stroke:#000000;stroke-width:15;stroke-linecap:round;stroke-linejoin:round;stroke-miterlimit:10"
   d="m 61.49,76.433 c 30.525,-26.857 69.268,-32.978 98.685,-3.561 2.778,2.778 5.309,5.709 7.593,8.767"
   id="path31" />
		<path
   style="fill:none;stroke:#000000;stroke-width:15;stroke-linecap:round;stroke-linejoin:round;stroke-miterlimit:10"
   d="m 331.053,239.504 2.932,-38.058 c 2.35,-30.498 22.813,-56.589 51.873,-66.139 v 0 c 17.322,-5.692 27.44,-19.916 29.662,-35.282"
   id="path32" />
		<path
   style="fill:none;stroke:#000000;stroke-width:15;stroke-linecap:round;stroke-linejoin:round;stroke-miterlimit:10"
   d="m 147.518,100.025 c 2.222,15.367 12.341,29.59 29.662,35.282 v 0 c 29.06,9.55 49.523,35.641 51.872,66.139 l 2.946,38.235"
   id="path33" />
		<path
   style="fill:none;stroke:#000000;stroke-width:15;stroke-linecap:round;stroke-linejoin:round;stroke-miterlimit:10"
   d="m 372.008,322.871 v 0 c 9.223,-28.787 -2.875,-60.11 -29.053,-75.224 l -29.153,-16.831 c -19.873,-11.474 -44.359,-11.474 -64.232,0 l -29.485,17.023 c -26.027,15.027 -38.155,46.092 -29.194,74.778 v 0 c 11.203,35.865 44.417,60.287 81.992,60.287 h 16.854 c 37.556,10e-4 70.812,-24.265 82.271,-60.033 z"
   id="path34" />
		<path
   style="fill:none;stroke:#000000;stroke-width:15;stroke-linecap:round;stroke-linejoin:round;stroke-miterlimit:10"
   d="m 257.809,259.986 c -5.57,2.944 -7.93,9.222 -5.455,14.657 4.757,10.444 16.011,17.785 29.144,17.785 13.19,0 24.486,-7.406 29.207,-17.922 2.439,-5.433 0.086,-11.685 -5.47,-14.622 l -0.31,-0.164 c -14.422,-7.623 -32.19,-7.623 -46.611,0 z"
   id="path35" />
		<path
   style="fill:none;stroke:#000000;stroke-width:15;stroke-linecap:round;stroke-linejoin:round;stroke-miterlimit:10"
   d="m 54.123,346.16 c -8.603,0.521 -16.833,1.914 -24.572,4.115 -0.619,0.176 -1.214,0.381 -1.807,0.588 -0.131,1.273 -0.186,2.564 -0.14,3.872 0.628,17.722 17.722,31.5 38.18,30.775 20.458,-0.725 36.534,-15.679 35.906,-33.401 -0.008,-0.216 -0.029,-0.429 -0.042,-0.643 -15.971,-4.395 -32.084,-6.24 -47.525,-5.306 z"
   id="path36" />
		<path
   style="fill:none;stroke:#000000;stroke-width:15;stroke-linecap:round;stroke-linejoin:round;stroke-miterlimit:10"
   d="m 372.56,114.902 c 4.483,-4.831 7.688,-10.9 8.987,-17.699 1.74,-9.105 -0.052,-17.929 -4.323,-25.204"
   id="path37" />
		<path
   style="fill:none;stroke:#000000;stroke-width:15;stroke-linecap:round;stroke-linejoin:round;stroke-miterlimit:10"
   d="m 244.299,51.407 c 4.034,26.375 25.308,47.823 53.09,50.882 0.69,0.076 1.377,0.14 2.064,0.191 6.902,0.52 13.337,3.996 17.484,9.539 6.389,8.539 16.505,14.253 28.262,14.532"
   id="path38" />
		<path
   style="fill:none;stroke:#000000;stroke-width:15;stroke-linecap:round;stroke-linejoin:round;stroke-miterlimit:10"
   d="M 222.59,368.059 C 149.811,348.48 97.412,292.473 97.412,216.398 c 0,-95.415 82.428,-168.333 184.107,-168.333 101.679,0 184.107,72.918 184.107,168.333 0,77.461 -54.325,134.115 -129.174,152.694"
   id="path39" />
		<g
   id="g40">
			
				<line
   style="fill:none;stroke:#000000;stroke-width:15;stroke-linecap:round;stroke-linejoin:round;stroke-miterlimit:10"
   x1="196.20599"
   y1="219.995"
   x2="196.20599"
   y2="232.006"
   id="line39" />
			
				<line
   style="fill:none;stroke:#000000;stroke-width:15;stroke-linecap:round;stroke-linejoin:round;stroke-miterlimit:10"
   x1="366.83301"
   y1="219.995"
   x2="366.83301"
   y2="232.006"
   id="line40" />
		</g>
		<path
   style="fill:none;stroke:#000000;stroke-width:15;stroke-linecap:round;stroke-linejoin:round;stroke-miterlimit:10"
   d="m 297.982,323.653 c -4.003,-4.593 -9.892,-7.5 -16.463,-7.5 -6.571,0 -12.46,2.907 -16.463,7.5"
   id="path40" />
		<path
   style="fill:none;stroke:#000000;stroke-width:15;stroke-linecap:round;stroke-linejoin:round;stroke-miterlimit:10"
   d="m 161.652,485.81 c 13.253,11.694 30.626,18.595 49.213,18.595 h 141.334 c 28.946,0 55.22,-16.687 67.139,-42.383 1.393,-3.002 2.601,-6.12 3.583,-9.357 3.096,-10.207 4.745,-20.919 4.745,-31.964 0,-28.669 -11.11,-55.096 -29.81,-76.271"
   id="path41" />
		<path
   style="fill:none;stroke:#000000;stroke-width:15;stroke-linecap:round;stroke-linejoin:round;stroke-miterlimit:10"
   d="m 165.269,344.33 c -12.723,14.38 -21.939,31.19 -26.55,49.482 -2.184,8.665 -3.346,17.66 -3.346,26.889 0,10.379 1.456,20.464 4.201,30.113 1.128,3.963 2.569,7.771 4.291,11.401"
   id="path42" />
		<path
   style="fill:none;stroke:#000000;stroke-width:15;stroke-linecap:round;stroke-linejoin:round;stroke-miterlimit:10"
   d="m 369.423,358.103 c -3.672,4.379 -6.634,9.481 -8.644,15.192 -8.973,25.495 4.42,53.437 29.915,62.41 0.53,0.187 1.061,0.363 1.593,0.53 5.35,1.678 9.789,5.603 12.042,10.738 2.726,6.212 7.59,11.466 14.019,14.59"
   id="path43" />
		<path
   style="fill:none;stroke:#000000;stroke-width:15;stroke-linecap:round;stroke-linejoin:round;stroke-miterlimit:10"
   d="m 213.406,503.69 c 0.962,-5.478 0.936,-10.943 0.024,-16.19 -1.678,-9.656 1.546,-19.574 8.454,-26.526 4.384,-4.412 7.617,-10.105 9.049,-16.718 3.571,-16.488 -5.814,-33.327 -21.716,-38.961 -7.03,-2.491 -14.26,-2.534 -20.82,-0.614 -8.664,2.535 -17.925,0.968 -25.429,-4.051 -6.986,-4.672 -15.285,-7.056 -23.68,-6.836"
   id="path44" />
		<path
   style="fill:none;stroke:#000000;stroke-width:15;stroke-linecap:round;stroke-linejoin:round;stroke-miterlimit:10"
   d="m 368.365,501.626 c 1.369,-4.423 2.117,-9.126 2.117,-14.007 0,-25.836 -20.645,-46.779 -46.112,-46.779 -25.467,0 -46.112,20.944 -46.112,46.779 0,5.649 0.997,11.059 2.806,16.072"
   id="path45" />
	</g>
</g>















</svg>
